<svg xmlns="http://www.w3.org/2000/svg" viewBox="0 0 24 24" role="img" aria-labelledby="title">
  <title>Instagram</title>
  <path fill="#E4405F" d="M12 2.16c3.2 0 3.58.01 4.85.07 1.17.05 1.8.25 2.22.42.56.22.96.49 1.38.91.42.42.69.82.91 1.38.17.42.37 1.05.42 2.22.06 1.27.07 1.65.07 4.85s-.01 3.58-.07 4.85c-.05 1.17-.25 1.8-.42 2.22-.22.56-.49.96-.91 1.38-.42.42-.82.69-1.38.91-.42.17-1.05.37-2.22.42-1.27.06-1.65.07-4.85.07s-3.58-.01-4.85-.07c-1.17-.05-1.8-.25-2.22-.42a3.67 3.67 0 0 1-1.38-.91 3.67 3.67 0 0 1-.91-1.38c-.17-.42-.37-1.05-.42-2.22-.06-1.27-.07-1.65-.07-4.85s.01-3.58.07-4.85c.05-1.17.25-1.8.42-2.22.22-.56.49-.96.91-1.38.42-.42.82-.69 1.38-.91.42-.17 1.05-.37 2.22-.42C8.42 2.17 8.8 2.16 12 2.16zM12 0C8.74 0 8.33.01 7.05.07 5.78.13 4.91.33 4.15.63a5.84 5.84 0 0 0-2.1 1.37A5.84 5.84 0 0 0 .68 4.1c-.3.76-.5 1.63-.56 2.9C.01 8.33 0 8.74 0 12c0 3.26.01 3.67.07 4.95.06 1.27.26 2.14.56 2.9.3.77.71 1.42 1.37 2.08.66.66 1.31 1.07 2.08 1.37.76.3 1.63.5 2.9.56 1.28.06 1.69.07 4.95.07 3.26 0 3.67-.01 4.95-.07 1.27-.06 2.14-.26 2.9-.56a5.84 5.84 0 0 0 2.08-1.37 5.84 5.84 0 0 0 1.37-2.08c.3-.76.5-1.63.56-2.9.06-1.28.07-1.69.07-4.95 0-3.26-.01-3.67-.07-4.95-.06-1.27-.26-2.14-.56-2.9a5.84 5.84 0 0 0-1.37-2.08A5.84 5.84 0 0 0 19.85.63c-.76-.3-1.63-.5-2.9-.56C15.67.01 15.26 0 12 0zm0 5.84A6.16 6.16 0 1 0 12 18.16 6.16 6.16 0 0 0 12 5.84zm0 10.16A4 4 0 1 1 12 8a4 4 0 0 1 0 8zm6.4-10.72a1.44 1.44 0 1 1-2.88 0 1.44 1.44 0 0 1 2.88 0z"/>
</svg>
