<svg xmlns="http://www.w3.org/2000/svg" viewBox="0 0 24 24" role="img" aria-labelledby="title">
  <title>WhatsApp</title>
  <path fill="#25D366" d="M20.52 3.48A11.88 11.88 0 0 0 12.06 0C5.5 0 .14 5.36.14 11.93c0 2.1.55 4.15 1.59 5.95L0 24l6.3-1.65a11.9 11.9 0 0 0 5.76 1.47h.01c6.56 0 11.92-5.36 11.93-11.93 0-3.18-1.24-6.18-3.48-8.41zm-8.46 18.3h-.01a9.88 9.88 0 0 1-5.03-1.38l-.36-.21-3.74.98 1-3.65-.24-.37a9.9 9.9 0 0 1-1.52-5.24C2.14 6.46 6.58 2.02 12.05 2.02a9.88 9.88 0 0 1 7 2.9 9.87 9.87 0 0 1 2.9 7c0 5.48-4.45 9.93-9.9 9.93zm5.44-7.42c-.3-.15-1.75-.87-2.03-.97-.27-.1-.47-.15-.67.15-.2.3-.77.97-.94 1.17-.17.2-.35.23-.65.08-.3-.15-1.25-.46-2.38-1.47a8.9 8.9 0 0 1-1.65-2.05c-.17-.3-.02-.46.13-.6.14-.14.3-.35.45-.52.15-.17.2-.3.3-.5.1-.2.05-.38-.02-.53-.08-.15-.67-1.62-.91-2.22-.24-.58-.49-.5-.67-.51h-.57c-.2 0-.53.08-.8.38-.27.3-1.03 1.01-1.03 2.46 0 1.45 1.05 2.85 1.2 3.05.15.2 2.07 3.15 5.01 4.42.7.3 1.25.48 1.68.61.71.22 1.35.19 1.85.11.57-.09 1.75-.71 2-1.4.25-.69.25-1.28.18-1.4-.08-.12-.27-.2-.57-.35z"/>
</svg>
